<svg width="10" height="10" viewBox="0 0 10 10" fill="none" xmlns="http://www.w3.org/2000/svg">
<path d="M8.10946 7.02026C7.19315 7.62561 6.15494 7.92843 4.99523 7.92843C3.83549 7.92843 2.79943 7.62561 1.88718 7.02026L1.77671 7.07541L1.73987 7.17362C1.87078 7.97541 1.98736 8.57266 2.08964 8.96542C2.17151 9.10854 2.27786 9.23447 2.40879 9.34288C2.53968 9.45114 2.68895 9.54023 2.85668 9.6098C3.02441 9.67929 3.18092 9.73448 3.32613 9.77536C3.47136 9.81632 3.63804 9.85303 3.82625 9.88592C4.2476 9.95549 4.6597 9.9933 5.06265 9.9994C5.46573 10.0056 5.8788 9.96048 6.30223 9.86445C6.72566 9.76837 7.11329 9.62209 7.46502 9.42578C7.61229 9.34384 7.73091 9.22821 7.82101 9.07905C7.91089 8.92974 7.96922 8.78647 7.99576 8.64952C8.02239 8.51248 8.05109 8.3406 8.08176 8.13399C8.11258 7.92746 8.14419 7.77101 8.17701 7.66464C8.17701 7.6278 8.1935 7.55204 8.22606 7.43759C8.25867 7.32308 8.26894 7.231 8.25675 7.16147C8.2445 7.09177 8.19537 7.04477 8.10946 7.02026Z" fill="white"/>
<path d="M9.22025 1.1232C8.97471 0.812367 8.53488 0.562834 7.90086 0.374621C6.68578 0.0186769 5.30299 -0.0836078 3.75265 0.0678097C2.98365 0.141401 2.34346 0.272272 1.83206 0.460506C1.70929 0.505491 1.61116 0.543297 1.53748 0.573989C1.46382 0.604659 1.36979 0.650676 1.25519 0.712059C1.14064 0.773422 1.04854 0.834784 0.978987 0.896146C0.909479 0.957465 0.845087 1.03417 0.785723 1.12623C0.72636 1.21828 0.690617 1.31745 0.678345 1.42382C0.715076 1.7184 0.760061 2.04155 0.81332 2.39338C0.86658 2.74518 0.914595 3.0469 0.957537 3.29847C1.00046 3.55002 1.05772 3.88035 1.12933 4.28947C1.20097 4.69861 1.25511 5.00546 1.29195 5.20994C1.30013 5.2468 1.31135 5.31829 1.32567 5.42472C1.34 5.53113 1.35225 5.61197 1.36251 5.66714C1.37274 5.72244 1.39114 5.79203 1.4177 5.87588C1.44429 5.95987 1.47908 6.03136 1.52203 6.09072C1.56501 6.15 1.61713 6.20435 1.67852 6.25325C2.2758 6.71148 3.0817 6.99577 4.09621 7.10626C5.56069 7.26161 6.80859 7.08176 7.83943 6.56623C7.97439 6.49681 8.08576 6.43338 8.17374 6.3761C8.26171 6.31872 8.35084 6.23692 8.44072 6.13057C8.53069 6.02422 8.58593 5.90971 8.60637 5.78703C8.95412 3.79055 9.18111 2.45079 9.28745 1.76762C9.31202 1.67354 9.3232 1.56307 9.32143 1.43624C9.31954 1.30939 9.28556 1.20498 9.22025 1.1232ZM6.05361 5.67015C5.80397 5.98106 5.49305 6.15281 5.12078 6.18568C4.7445 6.21839 4.40605 6.10388 4.10537 5.84205C3.80468 5.58027 3.64615 5.26318 3.62981 4.89088C3.61752 4.60859 3.6881 4.34371 3.84154 4.09622C3.99498 3.84873 4.20051 3.66774 4.45824 3.55318C4.85914 3.37316 5.26198 3.39975 5.66698 3.63294C6.07194 3.86612 6.30321 4.20158 6.36042 4.63933C6.40547 5.01569 6.30332 5.35925 6.05361 5.67015ZM7.36681 1.59881C7.17859 1.67038 7.03031 1.71436 6.92205 1.73069C6.81362 1.74705 6.63063 1.77159 6.37291 1.80446C5.47277 1.91891 4.55642 1.91689 3.62377 1.79829C3.37833 1.76964 3.19933 1.74606 3.08684 1.7276C2.97439 1.70924 2.82405 1.66426 2.63583 1.59262C2.44762 1.52101 2.29216 1.42801 2.16948 1.31341C2.24314 1.20708 2.34542 1.11911 2.47633 1.04958C2.6072 0.980076 2.71974 0.935091 2.81381 0.914608C2.90789 0.894126 3.04293 0.869602 3.21881 0.840952C4.34383 0.640488 5.50152 0.636404 6.69197 0.828701C6.89248 0.861435 7.03768 0.88699 7.1277 0.905409C7.21771 0.923786 7.33629 0.968856 7.48353 1.04038C7.6308 1.11196 7.74547 1.203 7.82716 1.31341C7.70852 1.43207 7.55504 1.52731 7.36681 1.59881Z" fill="white"/>
<path d="M5.51056 4.35395C5.39811 4.23323 5.26711 4.16062 5.11784 4.13606C4.96857 4.11153 4.82036 4.13606 4.67305 4.20971C4.51759 4.27926 4.41124 4.39786 4.3539 4.56559C4.29666 4.73332 4.29763 4.90108 4.35699 5.06889C4.41636 5.2366 4.52573 5.35522 4.6853 5.42475C4.9021 5.55575 5.13003 5.5434 5.3695 5.38796C5.60878 5.23261 5.7121 5.02593 5.6793 4.76821C5.67928 4.61275 5.62295 4.47468 5.51056 4.35395Z" fill="white"/>
</svg>
