<svg width="12" height="12" viewBox="0 0 12 12" fill="none" xmlns="http://www.w3.org/2000/svg">
<g clip-path="url(#clip0)">
<path d="M11.1951 3.13506C10.6585 2.21577 9.93076 1.48797 9.01155 0.951495C8.09221 0.414989 7.08857 0.146805 5.9999 0.146805C4.91138 0.146805 3.9074 0.415071 2.98825 0.951495C2.06897 1.48795 1.34122 2.21577 0.80469 3.13506C0.268239 4.05432 0 5.05816 0 6.14654C0 7.45395 0.38144 8.6296 1.14451 9.67379C1.9075 10.7181 2.89317 11.4407 4.10143 11.8417C4.24208 11.8678 4.3462 11.8494 4.41389 11.7871C4.48162 11.7246 4.51544 11.6464 4.51544 11.5528C4.51544 11.5372 4.5141 11.3966 4.5115 11.1309C4.50881 10.8653 4.50756 10.6335 4.50756 10.4357L4.32786 10.4668C4.21329 10.4878 4.06876 10.4967 3.89427 10.4942C3.71986 10.4918 3.5388 10.4735 3.35133 10.4395C3.16379 10.4058 2.98935 10.3277 2.82788 10.2053C2.66649 10.0829 2.55192 9.92269 2.4842 9.72491L2.40608 9.54513C2.35401 9.42545 2.27203 9.29249 2.16003 9.14676C2.04804 9.00089 1.93478 8.90199 1.82021 8.84992L1.76551 8.81077C1.72907 8.78475 1.69525 8.75336 1.66397 8.71694C1.63272 8.68052 1.60933 8.64407 1.5937 8.60757C1.57805 8.57104 1.59102 8.54108 1.63275 8.51757C1.67448 8.49407 1.74989 8.48266 1.85931 8.48266L2.0155 8.506C2.11967 8.52688 2.24852 8.58924 2.40222 8.69346C2.55584 8.79761 2.68212 8.933 2.78109 9.09958C2.90094 9.31318 3.04533 9.47593 3.21468 9.58793C3.3839 9.69993 3.5545 9.75583 3.72634 9.75583C3.89818 9.75583 4.0466 9.7428 4.17165 9.71689C4.29656 9.69084 4.41376 9.65168 4.52318 9.59964C4.57005 9.25054 4.69767 8.98236 4.90593 8.7949C4.6091 8.7637 4.34223 8.71672 4.10518 8.65425C3.86827 8.5917 3.62346 8.49018 3.3709 8.34943C3.1182 8.20886 2.90857 8.03432 2.74196 7.82608C2.57532 7.61774 2.43856 7.34422 2.33187 7.00577C2.22513 6.66718 2.17174 6.2766 2.17174 5.83392C2.17174 5.20362 2.37751 4.66725 2.78897 4.22452C2.59623 3.75064 2.61442 3.21942 2.84361 2.6309C2.99466 2.58397 3.21865 2.61919 3.51548 2.73633C3.81237 2.85352 4.02974 2.95392 4.16782 3.03715C4.30589 3.12037 4.41652 3.19088 4.49987 3.24807C4.98433 3.1127 5.48428 3.04501 5.99985 3.04501C6.51542 3.04501 7.01548 3.1127 7.49997 3.24807L7.79683 3.06066C7.99984 2.93561 8.23956 2.82101 8.51544 2.71684C8.79147 2.61273 9.00255 2.58405 9.14845 2.63098C9.38273 3.21953 9.40361 3.75073 9.21081 4.2246C9.62224 4.66733 9.82809 5.20384 9.82809 5.834C9.82809 6.27668 9.77452 6.66849 9.66794 7.00968C9.56122 7.35093 9.42328 7.62417 9.25407 7.83C9.08467 8.03579 8.8737 8.20897 8.62114 8.34951C8.36852 8.49016 8.12363 8.59167 7.88672 8.65422C7.6497 8.71677 7.38283 8.76378 7.086 8.79503C7.35672 9.02931 7.49212 9.39913 7.49212 9.9043V11.5526C7.49212 11.6462 7.52468 11.7244 7.58986 11.7868C7.65495 11.8492 7.75776 11.8676 7.8984 11.8414C9.10683 11.4405 10.0925 10.7179 10.8555 9.67358C11.6183 8.62938 11.9999 7.45373 11.9999 6.14633C11.9996 5.05807 11.7313 4.05432 11.1951 3.13506Z" fill="white"/>
</g>
<defs>
<clipPath id="clip0">
<rect width="12" height="12" fill="white"/>
</clipPath>
</defs>
</svg>
