<svg width="13" height="8" viewBox="0 0 13 8" fill="none" xmlns="http://www.w3.org/2000/svg">
<path d="M11.375 3.2V1.6H10.5625V3.2H8.9375V4H10.5625V5.6H11.375V4H13V3.2H11.375Z" fill="white"/>
<path d="M4.0625 3.2V4.8H6.36106C6.0255 5.7312 5.122 6.4 4.0625 6.4C2.71863 6.4 1.625 5.3232 1.625 4C1.625 2.6768 2.71863 1.6 4.0625 1.6C4.64506 1.6 5.20569 1.8056 5.64119 2.1792L6.70881 0.9728C5.97756 0.3456 5.03831 0 4.0625 0C1.82244 0 0 1.7944 0 4C0 6.2056 1.82244 8 4.0625 8C6.30256 8 8.125 6.2056 8.125 4V3.2H4.0625Z" fill="white"/>
</svg>
