<svg width="176" height="41" viewBox="0 0 176 41" fill="none" xmlns="http://www.w3.org/2000/svg">
<path d="M9.99998 -24H141C141 -24 170 -60.5 141 -0.500015C112 59.5 32.5 49 9.99998 -0.500015C-12.5 -50 9.99998 -24 9.99998 -24Z" fill="#51C285"/>
<path d="M35 -20.004H166C166 -20.004 190 -66 161 -6.00001C132 54 57.5 52.996 35 3.49602C12.5 -46.004 35 -20.004 35 -20.004Z" fill="#52D28D"/>
<path d="M35 -20.004H166C166 -20.004 190 -66 161 -6.00001C132 54 57.5 52.996 35 3.49602C12.5 -46.004 35 -20.004 35 -20.004Z" fill="#52D28D"/>
<path d="M35 -20.004H166C166 -20.004 190 -66 161 -6.00001C132 54 57.5 52.996 35 3.49602C12.5 -46.004 35 -20.004 35 -20.004Z" fill="#52D28D"/>
</svg>
